<svg width="48" height="48" viewBox="0 0 48 48" fill="none" xmlns="http://www.w3.org/2000/svg">
<path d="M42.527 44.6155L36.6655 38.804C36.0912 39.196 35.4687 39.4934 34.798 39.696C34.1277 39.8987 33.4258 40 32.6925 40C30.6775 40 28.9525 39.2834 27.5175 37.85C26.0828 36.4167 25.3655 34.6935 25.3655 32.6805C25.3655 30.6679 26.0822 28.9455 27.5155 27.5135C28.9488 26.0815 30.6718 25.3655 32.6845 25.3655C34.6975 25.3655 36.42 26.081 37.852 27.512C39.284 28.943 40 30.6634 40 32.673C40 33.426 39.8935 34.138 39.6805 34.809C39.4678 35.48 39.1653 36.1027 38.773 36.677L44.6155 42.5075L42.527 44.6155ZM11.3075 40.019C9.29817 40.019 7.57783 39.303 6.1465 37.871C4.7155 36.439 4 34.7064 4 32.673C4 30.6634 4.7155 28.943 6.1465 27.512C7.57783 26.081 9.29817 25.3655 11.3075 25.3655C13.3408 25.3655 15.0737 26.081 16.506 27.512C17.938 28.943 18.654 30.6634 18.654 32.673C18.654 34.7064 17.938 36.439 16.506 37.871C15.0737 39.303 13.3408 40.019 11.3075 40.019ZM11.3075 37.019C12.5232 37.019 13.5515 36.5985 14.3925 35.7575C15.2335 34.9165 15.654 33.8884 15.654 32.673C15.654 31.4884 15.2335 30.4742 14.3925 29.6305C13.5515 28.7872 12.5232 28.3655 11.3075 28.3655C10.1232 28.3655 9.10917 28.7872 8.2655 29.6305C7.42183 30.4742 7 31.4884 7 32.673C7 33.8884 7.42183 34.9165 8.2655 35.7575C9.10917 36.5985 10.1232 37.019 11.3075 37.019ZM32.6925 37.019C33.8768 37.019 34.8908 36.5985 35.7345 35.7575C36.5782 34.9165 37 33.8884 37 32.673C37 31.4884 36.5782 30.4742 35.7345 29.6305C34.8908 28.7872 33.8768 28.3655 32.6925 28.3655C31.4768 28.3655 30.4485 28.7872 29.6075 29.6305C28.7665 30.4742 28.346 31.4884 28.346 32.673C28.346 33.8884 28.7665 34.9165 29.6075 35.7575C30.4485 36.5985 31.4768 37.019 32.6925 37.019ZM11.3075 18.673C9.29817 18.673 7.57783 17.957 6.1465 16.525C4.7155 15.093 4 13.3604 4 11.327C4 9.31736 4.7155 7.59703 6.1465 6.16603C7.57783 4.73503 9.29817 4.01953 11.3075 4.01953C13.3408 4.01953 15.0737 4.73503 16.506 6.16603C17.938 7.59703 18.654 9.31736 18.654 11.327C18.654 13.3604 17.938 15.093 16.506 16.525C15.0737 17.957 13.3408 18.673 11.3075 18.673ZM32.6925 18.673C30.6592 18.673 28.9263 17.957 27.494 16.525C26.062 15.093 25.346 13.3604 25.346 11.327C25.346 9.31736 26.062 7.59703 27.494 6.16603C28.9263 4.73503 30.6592 4.01953 32.6925 4.01953C34.7018 4.01953 36.4222 4.73503 37.8535 6.16603C39.2845 7.59703 40 9.31736 40 11.327C40 13.3604 39.2845 15.093 37.8535 16.525C36.4222 17.957 34.7018 18.673 32.6925 18.673ZM11.3075 15.673C12.5232 15.673 13.5515 15.2525 14.3925 14.4115C15.2335 13.5705 15.654 12.5424 15.654 11.327C15.654 10.1424 15.2335 9.1282 14.3925 8.28453C13.5515 7.44086 12.5232 7.01903 11.3075 7.01903C10.1232 7.01903 9.10917 7.44086 8.2655 8.28453C7.42183 9.1282 7 10.1424 7 11.327C7 12.5424 7.42183 13.5705 8.2655 14.4115C9.10917 15.2525 10.1232 15.673 11.3075 15.673ZM32.6925 15.673C33.8768 15.673 34.8908 15.2525 35.7345 14.4115C36.5782 13.5705 37 12.5424 37 11.327C37 10.1424 36.5782 9.1282 35.7345 8.28453C34.8908 7.44086 33.8768 7.01903 32.6925 7.01903C31.4768 7.01903 30.4485 7.44086 29.6075 8.28453C28.7665 9.1282 28.346 10.1424 28.346 11.327C28.346 12.5424 28.7665 13.5705 29.6075 14.4115C30.4485 15.2525 31.4768 15.673 32.6925 15.673Z" fill="#19B3EC"/>
</svg>
