<svg width="48" height="48" viewBox="0 0 48 48" fill="none" xmlns="http://www.w3.org/2000/svg">
<path d="M8 16.808H40V12.6155C40 12.4615 39.9358 12.3205 39.8075 12.1925C39.6795 12.0642 39.5385 12 39.3845 12H8.6155C8.4615 12 8.3205 12.0642 8.1925 12.1925C8.06417 12.3205 8 12.4615 8 12.6155V16.808ZM5 12.6155C5 11.6052 5.35 10.75 6.05 10.05C6.75 9.35 7.60517 9 8.6155 9H39.3845C40.3948 9 41.25 9.35 41.95 10.05C42.65 10.75 43 11.6052 43 12.6155V23.192H8V35.3845C8 35.5385 8.06417 35.6795 8.1925 35.8075C8.3205 35.9358 8.4615 36 8.6155 36H17.373V39H8.6155C7.60517 39 6.75 38.65 6.05 37.95C5.35 37.25 5 36.3948 5 35.3845V12.6155ZM29.5925 42.5385L21.7845 34.7305L23.8925 32.623L29.5925 38.2615L40.9305 26.923L43.0385 29.092L29.5925 42.5385ZM8 12.6155V35.3845C8 35.5385 8.06417 35.6795 8.1925 35.8075C8.3205 35.9358 8.4615 36 8.6155 36H8V26.9425V32.6115V12H8.6155C8.4615 12 8.3205 12.0642 8.1925 12.1925C8.06417 12.3205 8 12.4615 8 12.6155Z" fill="#19B3EC"/>
</svg>
