<svg width="40" height="40" viewBox="0 0 40 40" fill="none" xmlns="http://www.w3.org/2000/svg">
<rect width="40" height="40" rx="20" fill="#19B3EC"/>
<path d="M20.0019 19.8652C20.4994 19.8652 20.9247 19.6881 21.2779 19.3338C21.6312 18.9794 21.8079 18.5535 21.8079 18.056C21.8079 17.5585 21.6307 17.1331 21.2764 16.7798C20.9221 16.4266 20.4961 16.25 19.9984 16.25C19.5009 16.25 19.0756 16.4272 18.7224 16.7815C18.3691 17.1358 18.1924 17.5618 18.1924 18.0595C18.1924 18.557 18.3696 18.9823 18.7239 19.3355C19.0782 19.6887 19.5042 19.8652 20.0019 19.8652ZM20.0001 27.5135C21.9565 25.7622 23.4536 24.0823 24.4914 22.474C25.5292 20.8657 26.0481 19.457 26.0481 18.248C26.0481 16.425 25.469 14.9263 24.3106 13.752C23.1523 12.5777 21.7155 11.9905 20.0001 11.9905C18.2848 11.9905 16.848 12.5777 15.6896 13.752C14.5313 14.9263 13.9521 16.425 13.9521 18.248C13.9521 19.457 14.4711 20.8657 15.5089 22.474C16.5467 24.0823 18.0438 25.7622 20.0001 27.5135ZM20.0001 29.5095C17.4835 27.3288 15.5963 25.2994 14.3386 23.4212C13.081 21.5429 12.4521 19.8185 12.4521 18.248C12.4521 15.9403 13.1986 14.0721 14.6914 12.6432C16.1844 11.2144 17.954 10.5 20.0001 10.5C22.0463 10.5 23.8159 11.2144 25.3089 12.6432C26.8017 14.0721 27.5481 15.9403 27.5481 18.248C27.5481 19.8185 26.9193 21.5429 25.6616 23.4212C24.404 25.2994 22.5168 27.3288 20.0001 29.5095Z" fill="white"/>
</svg>
