<svg width="48" height="48" viewBox="0 0 48 48" fill="none" xmlns="http://www.w3.org/2000/svg">
<path d="M3.59644 38.6155V34.169C3.59644 33.1384 3.86244 32.2185 4.39444 31.4095C4.92644 30.6005 5.63694 29.9712 6.52594 29.5215C8.4266 28.5919 10.3378 27.875 12.2594 27.371C14.1814 26.8674 16.2936 26.6155 18.5959 26.6155C20.8986 26.6155 23.0108 26.8674 24.9324 27.371C26.8544 27.875 28.7658 28.5919 30.6664 29.5215C31.5554 29.9712 32.2659 30.6005 32.7979 31.4095C33.3299 32.2185 33.5959 33.1384 33.5959 34.169V38.6155H3.59644ZM37.5959 38.6155V33.923C37.5959 32.6104 37.2746 31.3592 36.6319 30.1695C35.9889 28.9802 35.0769 27.9597 33.8959 27.108C35.2369 27.308 36.5101 27.6175 37.7154 28.0365C38.9204 28.4559 40.0704 28.9514 41.1654 29.523C42.1988 30.0744 42.9968 30.7242 43.5594 31.4725C44.1221 32.2205 44.4034 33.0374 44.4034 33.923V38.6155H37.5959ZM18.5959 23.3845C16.6709 23.3845 15.0231 22.6992 13.6524 21.3285C12.2818 19.9575 11.5964 18.3095 11.5964 16.3845C11.5964 14.4595 12.2818 12.8117 13.6524 11.441C15.0231 10.07 16.6709 9.38452 18.5959 9.38452C20.5209 9.38452 22.1689 10.07 23.5399 11.441C24.9106 12.8117 25.5959 14.4595 25.5959 16.3845C25.5959 18.3095 24.9106 19.9575 23.5399 21.3285C22.1689 22.6992 20.5209 23.3845 18.5959 23.3845ZM35.8649 16.3845C35.8649 18.3095 35.1796 19.9575 33.8089 21.3285C32.4383 22.6992 30.7904 23.3845 28.8654 23.3845C28.6398 23.3845 28.3526 23.3589 28.0039 23.3075C27.6549 23.2562 27.3678 23.1999 27.1424 23.1385C27.9311 22.1902 28.5373 21.1382 28.9609 19.9825C29.3843 18.8269 29.5959 17.6269 29.5959 16.3825C29.5959 15.1379 29.3799 13.9424 28.9479 12.796C28.5159 11.65 27.9141 10.595 27.1424 9.63102C27.4294 9.52835 27.7166 9.46169 28.0039 9.43102C28.2909 9.40002 28.5781 9.38452 28.8654 9.38452C30.7904 9.38452 32.4383 10.07 33.8089 11.441C35.1796 12.8117 35.8649 14.4595 35.8649 16.3845ZM6.59594 35.6155H30.5959V34.169C30.5959 33.7514 30.4914 33.3797 30.2824 33.054C30.0738 32.7284 29.7424 32.4437 29.2884 32.2C27.6424 31.3514 25.9476 30.7084 24.2039 30.271C22.4603 29.834 20.5909 29.6155 18.5959 29.6155C16.6013 29.6155 14.7321 29.834 12.9884 30.271C11.2448 30.7084 9.54994 31.3514 7.90394 32.2C7.44994 32.4437 7.11844 32.7284 6.90944 33.054C6.70044 33.3797 6.59594 33.7514 6.59594 34.169V35.6155ZM18.5959 20.3845C19.6959 20.3845 20.6376 19.9929 21.4209 19.2095C22.2043 18.4262 22.5959 17.4845 22.5959 16.3845C22.5959 15.2845 22.2043 14.3429 21.4209 13.5595C20.6376 12.7762 19.6959 12.3845 18.5959 12.3845C17.4959 12.3845 16.5543 12.7762 15.7709 13.5595C14.9876 14.3429 14.5959 15.2845 14.5959 16.3845C14.5959 17.4845 14.9876 18.4262 15.7709 19.2095C16.5543 19.9929 17.4959 20.3845 18.5959 20.3845Z" fill="#19B3EC"/>
</svg>
