<svg width="80" height="80" viewBox="0 0 80 80" fill="none" xmlns="http://www.w3.org/2000/svg">
<g clip-path="url(#clip0_665_1575)">
<path d="M80 0H0V80H80V0Z" fill="#1A2247"/>
<path d="M21.7344 51.2782V51.0638L21.8864 51.0542C22.0096 51.0478 22.0864 51.0254 22.1184 50.9902C22.1488 50.955 22.168 50.8334 22.1728 50.6286C22.184 50.2094 22.1904 49.7566 22.1904 49.2686C22.1904 49.0094 22.1904 48.715 22.1872 48.3838C22.184 48.1838 22.1728 48.0622 22.1536 48.0174C22.144 47.995 22.1248 47.9774 22.0976 47.9646C22.0704 47.9518 21.9504 47.9374 21.736 47.9214V47.707C21.9408 47.7118 22.1424 47.715 22.3376 47.715C22.5664 47.715 22.7872 47.7118 22.9984 47.707C23.0896 47.923 23.1856 48.1358 23.2832 48.3486C23.3536 48.499 23.6608 49.139 24.208 50.2686C24.7856 49.1086 25.1904 48.2558 25.4208 47.707C25.624 47.715 25.8176 47.7198 26 47.7198C26.2144 47.7198 26.4224 47.715 26.6224 47.707V47.9214C26.4 47.9342 26.2752 47.955 26.2464 47.9806C26.2176 48.0062 26.1984 48.0846 26.1904 48.2142C26.1792 48.427 26.1728 48.8334 26.1728 49.4318C26.1728 49.7342 26.176 50.0526 26.1824 50.3886C26.1888 50.7246 26.2 50.9134 26.216 50.9582C26.2272 50.9838 26.2448 51.003 26.2672 51.0174C26.2896 51.0302 26.408 51.0478 26.624 51.0654V51.2798C26.3488 51.2686 26.104 51.2622 25.888 51.2622C25.672 51.2622 25.376 51.2686 25.0016 51.2798V51.0654L25.152 51.0606C25.2704 51.0558 25.3456 51.0398 25.3744 51.011C25.4048 50.9822 25.4224 50.9086 25.432 50.7902C25.44 50.6702 25.4448 50.3886 25.4448 49.9438V48.4078C25.184 48.9326 24.8496 49.619 24.4432 50.4702C24.2768 50.8206 24.1472 51.1054 24.0528 51.3262H23.8848C23.7568 51.035 23.5872 50.6654 23.3728 50.219L22.4912 48.4094V48.755C22.4912 49.7118 22.496 50.3694 22.504 50.731C22.5088 50.8766 22.528 50.9662 22.5632 51.0014C22.5968 51.035 22.7232 51.0574 22.9424 51.067V51.2814C22.7696 51.2702 22.5968 51.2638 22.424 51.2638C22.1664 51.2638 21.9376 51.2702 21.736 51.2814L21.7344 51.2782Z" fill="white"/>
<path d="M27.8015 51.2785V51.0641C28.0335 51.0529 28.1663 51.0321 28.1967 51.0049C28.2271 50.9777 28.2463 50.9105 28.2527 50.8033C28.2655 50.5793 28.2735 50.1617 28.2735 49.5505C28.2735 49.3169 28.2703 48.9777 28.2639 48.5329C28.2607 48.2289 28.2543 48.0625 28.2431 48.0321C28.2335 48.0017 28.2159 47.9809 28.1903 47.9665C28.1535 47.9473 28.0239 47.9313 27.8031 47.9185V47.7041C28.1519 47.7153 28.4191 47.7217 28.6047 47.7217C28.9231 47.7217 29.2127 47.7153 29.4703 47.7041V47.9185C29.2383 47.9313 29.1071 47.9505 29.0767 47.9729C29.0463 47.9953 29.0271 48.0481 29.0191 48.1313C29.0063 48.2945 28.9983 48.6241 28.9983 49.1217C28.9983 49.7841 29.0015 50.2449 29.0063 50.5057C29.0111 50.7665 29.0271 50.9217 29.0527 50.9697C29.0623 50.9921 29.0847 51.0097 29.1183 51.0225C29.1519 51.0353 29.2687 51.0481 29.4703 51.0625V51.2769L29.1695 51.2689C28.9791 51.2625 28.8095 51.2593 28.6607 51.2593L27.8031 51.2769L27.8015 51.2785Z" fill="white"/>
<path d="M34.0207 50.7266L34.0847 50.7858C34.0399 50.8706 34.0015 50.957 33.9679 51.045C33.7711 51.149 33.5807 51.2226 33.3983 51.2658C33.2159 51.309 33.0063 51.3314 32.7679 51.3314C32.3231 51.3314 31.9471 51.253 31.6399 51.0978C31.3327 50.9426 31.0959 50.7218 30.9311 50.4386C30.7663 50.1554 30.6831 49.8306 30.6831 49.4642C30.6831 48.9362 30.8703 48.5042 31.2447 48.1682C31.6191 47.8306 32.1343 47.6626 32.7935 47.6626C33.0127 47.6626 33.2287 47.6818 33.4431 47.7218C33.6575 47.7602 33.8703 47.821 34.0831 47.8994L34.1007 47.9378C34.0687 48.029 34.0479 48.117 34.0351 48.2018C34.0127 48.349 33.9951 48.533 33.9823 48.7522H33.7679C33.7583 48.4834 33.7471 48.3362 33.7375 48.3106C33.7279 48.285 33.6815 48.2386 33.5983 48.1762C33.5151 48.1122 33.4031 48.061 33.2623 48.021C33.1215 47.981 32.9647 47.9618 32.7935 47.9618C32.3871 47.9618 32.0639 48.0882 31.8239 48.3378C31.5839 48.5874 31.4639 48.9378 31.4639 49.3858C31.4639 49.8706 31.6079 50.2642 31.8959 50.565C32.1615 50.8434 32.5279 50.9826 32.9935 50.9826C33.1727 50.9826 33.3423 50.9634 33.4991 50.9266C33.6559 50.8898 33.8303 50.8242 34.0191 50.7298L34.0207 50.7266Z" fill="white"/>
<path d="M35.4304 51.2786V51.141C35.52 51.101 35.6032 51.053 35.6768 50.9986C35.7104 50.7346 35.728 50.1778 35.728 49.3298C35.728 48.7506 35.7216 48.3682 35.7104 48.1794C35.7056 48.0802 35.688 48.0162 35.6576 47.9906C35.6272 47.965 35.5024 47.9426 35.28 47.9234V47.709C35.68 47.725 35.9968 47.7314 36.2288 47.7314L37.6304 47.709C37.7776 47.709 37.9104 47.7154 38.0288 47.7266L38.0464 47.7554C38.0096 47.9426 37.9824 48.1906 37.9648 48.501H37.7632C37.7552 48.253 37.7456 48.1202 37.7344 48.1042C37.7232 48.0866 37.6848 48.0706 37.6192 48.0562C37.4784 48.0258 37.2624 48.0098 36.9728 48.0098C36.8304 48.0098 36.664 48.0162 36.4736 48.0274C36.4512 48.5522 36.4384 48.9698 36.4352 49.2802C36.616 49.2914 36.7872 49.2978 36.9472 49.2978C37.1824 49.2978 37.3248 49.2898 37.3728 49.2754C37.4016 49.2658 37.4224 49.2402 37.4336 49.2018C37.4432 49.1714 37.456 49.0642 37.4688 48.8818H37.688C37.68 49.1698 37.6752 49.3554 37.6752 49.4434L37.688 50.0178H37.4688C37.4576 49.7938 37.4416 49.6658 37.4224 49.6306C37.4128 49.6098 37.3888 49.5954 37.3536 49.5874C37.2688 49.5682 37.0784 49.5586 36.7808 49.5586C36.688 49.5586 36.5776 49.565 36.4528 49.5762C36.4496 49.6658 36.448 49.757 36.448 49.8498C36.448 50.333 36.456 50.7058 36.4736 50.965L36.9792 50.973C37.2672 50.973 37.5296 50.957 37.7664 50.9266C37.8096 50.7698 37.8496 50.5922 37.888 50.3922H38.0992C38.0608 50.6946 38.0368 50.9842 38.0304 51.2626C37.8752 51.2738 37.728 51.2802 37.5856 51.2802C37.4928 51.2802 37.3088 51.277 37.0336 51.2706C36.7776 51.2642 36.5408 51.261 36.3264 51.261C36.0432 51.261 35.744 51.2674 35.4304 51.2786Z" fill="white"/>
<path d="M39.448 51.2786V51.141C39.5376 51.101 39.6208 51.053 39.6944 50.9986C39.728 50.7346 39.7456 50.1778 39.7456 49.3298C39.7456 48.7506 39.7392 48.3682 39.728 48.1794C39.7232 48.0802 39.7056 48.0162 39.6752 47.9906C39.6448 47.965 39.52 47.9426 39.2976 47.9234V47.709C39.6976 47.725 40.0144 47.7314 40.2464 47.7314L41.648 47.709C41.7952 47.709 41.928 47.7154 42.048 47.7266L42.0656 47.7554C42.0288 47.9426 42.0016 48.1906 41.984 48.501H41.7824C41.7744 48.253 41.7648 48.1202 41.7536 48.1042C41.7424 48.0866 41.704 48.0706 41.6384 48.0562C41.4976 48.0258 41.2816 48.0098 40.992 48.0098C40.8496 48.0098 40.6832 48.0162 40.4928 48.0274C40.4704 48.5522 40.4576 48.9698 40.4544 49.2802C40.6352 49.2914 40.8064 49.2978 40.9664 49.2978C41.2016 49.2978 41.344 49.2898 41.392 49.2754C41.4208 49.2658 41.4416 49.2402 41.4528 49.2018C41.4624 49.1714 41.4752 49.0642 41.488 48.8818H41.7072C41.6992 49.1698 41.6944 49.3554 41.6944 49.4434L41.7072 50.0178H41.488C41.4768 49.7938 41.4608 49.6658 41.4416 49.6306C41.432 49.6098 41.408 49.5954 41.3728 49.5874C41.288 49.5682 41.0976 49.5586 40.8 49.5586C40.7072 49.5586 40.5968 49.565 40.472 49.5762C40.4688 49.6658 40.4672 49.757 40.4672 49.8498C40.4672 50.333 40.4752 50.7058 40.4928 50.965L40.9984 50.973C41.2848 50.973 41.5488 50.957 41.7856 50.9266C41.8272 50.7698 41.8688 50.5922 41.9072 50.3922H42.1184C42.08 50.6946 42.056 50.9842 42.0496 51.2626C41.896 51.2738 41.7472 51.2802 41.6048 51.2802C41.512 51.2802 41.328 51.277 41.0528 51.2706C40.7968 51.2642 40.56 51.261 40.3456 51.261C40.0624 51.261 39.7632 51.2674 39.4496 51.2786H39.448Z" fill="white"/>
<path d="M43.8416 51.2782V51.1454C43.9584 51.0782 44.0416 51.027 44.0912 50.9934C44.1152 50.6958 44.1264 50.1358 44.1264 49.3182C44.1264 48.9646 44.1232 48.667 44.1152 48.4286C44.1072 48.1902 44.096 48.0542 44.0816 48.0206C44.0752 48.003 44.064 47.9902 44.048 47.9822C44.0224 47.9694 43.8976 47.9486 43.6736 47.9214V47.707C43.9296 47.715 44.224 47.7198 44.5568 47.7198L45.8112 47.707C46.2672 47.707 46.6144 47.7646 46.8512 47.8798C47.088 47.995 47.2752 48.171 47.4144 48.4094C47.5536 48.6462 47.6224 48.9358 47.6224 49.275C47.6224 49.7118 47.5136 50.0862 47.296 50.403C47.0784 50.7182 46.8144 50.9438 46.5024 51.0766C46.1904 51.211 45.856 51.2782 45.5024 51.2782L44.5376 51.2606C44.384 51.2606 44.1504 51.267 43.84 51.2782H43.8416ZM44.872 50.963C45.0144 50.9886 45.16 51.0014 45.3104 51.0014C45.688 51.0014 45.9776 50.947 46.176 50.8382C46.3744 50.7294 46.536 50.5518 46.6576 50.3054C46.7808 50.059 46.8416 49.755 46.8416 49.3966C46.8416 48.923 46.72 48.563 46.4752 48.3166C46.2592 48.0958 45.9072 47.9854 45.4192 47.9854C45.3136 47.9854 45.1312 47.9934 44.872 48.011L44.8512 49.5966C44.8512 50.2638 44.8576 50.7198 44.872 50.963Z" fill="white"/>
<path d="M50.9297 50.7871L51.0033 50.8607L50.8897 51.1039C50.7681 51.1791 50.6369 51.2367 50.4961 51.2751C50.3553 51.3135 50.2065 51.3327 50.0497 51.3327C49.6801 51.3327 49.3889 51.2255 49.1745 51.0111C48.9601 50.7967 48.8545 50.4943 48.8545 50.1055C48.8545 49.8591 48.8865 49.6559 48.9489 49.4943C49.0001 49.3631 49.0833 49.2543 49.2001 49.1679C49.3169 49.0815 49.4497 48.9983 49.6017 48.9215C49.7537 48.8447 49.9201 48.8047 50.1025 48.8047C50.3809 48.8047 50.6113 48.8831 50.7921 49.0383C50.9729 49.1935 51.0641 49.4447 51.0641 49.7887C51.0641 49.8319 51.0609 49.8959 51.0545 49.9823L50.6385 50.0591C50.5105 50.0671 50.3233 50.0719 50.0801 50.0719H49.5281C49.5537 50.3647 49.6417 50.5855 49.7905 50.7327C49.9393 50.8799 50.1297 50.9551 50.3601 50.9551C50.4561 50.9551 50.5521 50.9407 50.6481 50.9135C50.7425 50.8847 50.8369 50.8447 50.9313 50.7903L50.9297 50.7871ZM49.5105 49.7999C49.6625 49.8127 49.8161 49.8207 49.9681 49.8207C50.1025 49.8207 50.2433 49.8143 50.3905 49.7999L50.3937 49.6799C50.3937 49.4703 50.3553 49.3183 50.2785 49.2207C50.2017 49.1247 50.0993 49.0767 49.9681 49.0767C49.8769 49.0767 49.7969 49.0991 49.7313 49.1439C49.6657 49.1887 49.6161 49.2527 49.5841 49.3343C49.5521 49.4159 49.5265 49.5711 49.5105 49.7999Z" fill="white"/>
<path d="M54.0992 49.7182H53.8912C53.8784 49.5166 53.864 49.3998 53.848 49.3694C53.8256 49.3214 53.776 49.2782 53.6992 49.2398C53.6224 49.2014 53.5248 49.1806 53.4064 49.1806C53.2256 49.1806 53.0944 49.2318 53.0128 49.3342C52.9296 49.4366 52.8896 49.6222 52.8896 49.8894C52.8896 50.2286 52.9664 50.4894 53.1216 50.675C53.2768 50.859 53.4752 50.9518 53.7168 50.9518C53.8048 50.9518 53.8864 50.9438 53.96 50.9294C54.0336 50.915 54.1008 50.8926 54.1616 50.8622L54.2048 50.9182C54.168 50.9998 54.1328 51.0814 54.1008 51.163C53.9888 51.219 53.8752 51.2606 53.7584 51.2878C53.6416 51.315 53.5248 51.3294 53.4064 51.3294C53.0368 51.3294 52.7488 51.227 52.5424 51.0222C52.336 50.8174 52.2336 50.5262 52.2336 50.1502C52.2336 50.011 52.2464 49.8846 52.2736 49.7726C52.3008 49.659 52.3376 49.563 52.384 49.4846C52.4304 49.4062 52.4816 49.3422 52.5376 49.2926C52.5712 49.2654 52.7168 49.171 52.976 49.0094C53.1264 48.915 53.2368 48.8558 53.3056 48.8334C53.3744 48.811 53.4656 48.7998 53.5824 48.7998C53.6848 48.7998 53.784 48.8078 53.88 48.8222C53.976 48.8366 54.0704 48.8606 54.1632 48.891L54.2064 48.9374C54.1456 49.2206 54.1104 49.4798 54.1024 49.7166L54.0992 49.7182Z" fill="white"/>
<path d="M55.3679 51.2784V51.0704C55.5487 51.064 55.6559 51.0512 55.6863 51.0352C55.7023 51.0256 55.7135 51.0096 55.7215 50.9888C55.7343 50.952 55.7439 50.7808 55.7487 50.4784C55.7535 50.1744 55.7567 49.8592 55.7567 49.5312C55.7567 49.2656 55.7519 48.9248 55.7439 48.5088C55.7375 48.2064 55.7295 48.0384 55.7199 48.0048C55.7103 47.9712 55.6927 47.9472 55.6655 47.9312C55.6383 47.9152 55.5391 47.9056 55.3679 47.9024V47.7184C55.5951 47.696 55.7791 47.6704 55.9199 47.6384C56.0607 47.6064 56.1903 47.5648 56.3071 47.512C56.3391 47.4992 56.3615 47.4912 56.3759 47.4912C56.4015 47.4912 56.4143 47.5136 56.4143 47.56L56.4095 47.6688C56.4031 47.7952 56.3983 48.272 56.3935 49.1024L56.3887 49.816L56.3935 49.9568C56.7519 49.6528 57.1215 49.2864 57.5023 48.8576C57.6223 48.8672 57.7311 48.8736 57.8255 48.8736C57.9391 48.8736 58.0591 48.8688 58.1871 48.8576V49.0656C57.9999 49.0752 57.8863 49.0864 57.8463 49.0992C57.8079 49.112 57.7503 49.1472 57.6735 49.2064C57.5967 49.2656 57.3839 49.4512 57.0335 49.7616L57.4015 50.1776C57.8255 50.6576 58.0735 50.928 58.1487 50.9904C58.1967 51.0336 58.2639 51.0576 58.3503 51.0672V51.2752C58.1599 51.2656 57.9855 51.2592 57.8255 51.2592C57.7023 51.2592 57.5791 51.264 57.4591 51.2752C57.2911 51.0528 57.1231 50.8464 56.9551 50.656C56.7263 50.3968 56.5375 50.1968 56.3903 50.056V50.4672C56.3903 50.7056 56.3999 50.8672 56.4207 50.952C56.4287 50.9888 56.4463 51.016 56.4719 51.0304C56.4975 51.0448 56.6015 51.0576 56.7823 51.0672V51.2752C56.4543 51.2656 56.2351 51.2592 56.1263 51.2592C56.0175 51.2592 55.7663 51.264 55.3647 51.2752L55.3679 51.2784Z" fill="white"/>
<path d="M19.7985 50.9999C15.5201 47.9647 13.1633 44.0591 13.1633 39.9999C13.1633 30.8255 25.1057 23.3599 39.7857 23.3599C54.4657 23.3599 66.4081 30.8239 66.4081 39.9999C66.4081 43.9679 64.1457 47.8079 60.0353 50.8111L59.7105 50.3679C63.6737 47.4703 65.8577 43.7887 65.8577 39.9999C65.8577 31.1279 54.1617 23.9103 39.7841 23.9103C25.4065 23.9103 13.7105 31.1279 13.7105 39.9999C13.7105 43.8767 15.9841 47.6239 20.1137 50.5519L19.7953 50.9999H19.7985Z" fill="url(#paint0_linear_665_1575)"/>
<path d="M19.9569 50.7761C15.8977 47.8977 13.4385 44.1265 13.4385 40.0001C13.4385 30.9617 25.2353 23.6353 39.7857 23.6353" stroke="#F8FBFE" stroke-width="3.43" stroke-miterlimit="10"/>
<path d="M14.9762 36.2303L14.6482 36.0671C16.2018 32.9279 19.1986 30.1727 23.3138 28.0959C27.4706 25.9983 32.4818 24.7455 37.805 24.4751L37.8242 24.8415C32.5506 25.1103 27.5906 26.3487 23.4786 28.4239C19.4354 30.4639 16.4946 33.1647 14.9762 36.2303Z" fill="#F8FBFE"/>
<path d="M42.1842 54.629C41.125 54.629 40.0002 55.341 40.0002 56.0114C40.0002 55.341 38.8754 54.629 37.8162 54.629C38.8754 54.629 40.0002 53.917 40.0002 53.2466C40.0002 53.917 41.125 54.629 42.1842 54.629Z" fill="#F8FBFE"/>
<path d="M40 21.499V22.6958C55.4688 22.7438 67.9856 30.4718 67.9856 39.9998C67.9856 49.5278 55.4688 57.2574 40 57.3038V58.5006C56.5248 58.5006 69.92 50.2174 69.92 39.9998C69.92 29.7822 56.5248 21.499 40 21.499Z" fill="url(#paint1_linear_665_1575)"/>
<path d="M39.8577 57.3056C24.3233 57.3056 11.7281 49.5568 11.7281 40C11.7281 30.4432 24.3217 22.6944 39.8577 22.6944C39.9057 22.6944 39.9521 22.6944 40.0001 22.6944V21.4976C23.4753 21.4976 10.0801 29.7808 10.0801 39.9984C10.0801 50.216 23.4753 58.4992 40.0001 58.4992V57.3024C39.9521 57.3024 39.9057 57.3024 39.8577 57.3024V57.3056Z" fill="#F8FBFE"/>
<path d="M44.4881 44.8769C44.4177 44.7105 44.2481 44.6097 44.0689 44.5905C41.4033 44.3137 41.2241 42.9201 41.2241 42.9201V37.7905L39.5137 37.9121L37.8033 37.7905V42.9201C37.8033 42.9201 37.6241 44.3137 34.9585 44.5905C34.7793 44.6097 34.6097 44.7105 34.5393 44.8769C34.4785 45.0193 34.5057 45.1793 34.8625 45.2513C34.8625 45.2513 37.0753 46.0497 39.5137 44.0961C41.9521 46.0497 44.1649 45.2513 44.1649 45.2513C44.5217 45.1793 44.5489 45.0193 44.4881 44.8769Z" fill="white"/>
<path d="M39.9121 30.9567C40.9177 30.9567 41.7329 30.4567 41.7329 29.8399C41.7329 29.2232 40.9177 28.7231 39.9121 28.7231C38.9065 28.7231 38.0913 29.2232 38.0913 29.8399C38.0913 30.4567 38.9065 30.9567 39.9121 30.9567Z" fill="#F8FBFE"/>
<path d="M24.1039 32.0045C24.8983 32.0045 25.5423 31.6471 25.5423 31.2061C25.5423 30.7652 24.8983 30.4077 24.1039 30.4077C23.3095 30.4077 22.6655 30.7652 22.6655 31.2061C22.6655 31.6471 23.3095 32.0045 24.1039 32.0045Z" fill="white"/>
<path d="M34.4 43.1505L32.5616 39.5729C32.3488 39.1601 31.9248 38.9009 31.4608 38.9009H25.5248C25.0304 38.9009 24.5888 38.5889 24.4224 38.1217L22.7024 33.2673C22.5968 32.9713 22.3184 32.7729 22.0032 32.7729C21.4912 32.7729 21.1344 33.2785 21.304 33.7617L23.1248 38.8993L21.7872 43.8913H20.8272C20.7088 43.8913 20.6128 43.9873 20.6128 44.1057V44.3137C20.6128 44.4321 20.7088 44.5281 20.8272 44.5281H32.9888C33.1072 44.5281 33.2032 44.4321 33.2032 44.3137V44.1057C33.2032 43.9873 33.1072 43.8913 32.9888 43.8913H32.216V41.1281L33.4944 43.6145C33.5824 43.7841 33.7568 43.8913 33.9472 43.8913C34.328 43.8913 34.5744 43.4881 34.4 43.1489V43.1505ZM23.36 43.8929L24.4368 39.8785H31.072V43.8929H23.36Z" fill="white"/>
<path d="M24.7824 36.4687C24.7824 36.0863 25.68 35.7295 27.2192 35.4303C27.0448 34.2687 26.5936 32.6991 25.4272 32.3983C24.1456 32.0671 23.8128 32.7967 23.7328 33.3007C23.6976 33.5183 23.7136 33.7391 23.7728 33.9503C24 34.7727 24.8128 37.6543 25.2032 38.1679C25.6608 38.7679 32.2576 37.8367 32.2576 37.8367L31.3424 37.7455C26.168 37.4351 24.784 37.2335 24.784 36.4687H24.7824Z" fill="white"/>
<path d="M55.7343 32.0045C56.5287 32.0045 57.1727 31.6471 57.1727 31.2061C57.1727 30.7652 56.5287 30.4077 55.7343 30.4077C54.9399 30.4077 54.2959 30.7652 54.2959 31.2061C54.2959 31.6471 54.9399 32.0045 55.7343 32.0045Z" fill="white"/>
<path d="M46.0528 43.8928C46.2432 43.8928 46.4192 43.7856 46.5056 43.616L47.784 41.1296V43.8928H47.0112C46.8928 43.8928 46.7968 43.9888 46.7968 44.1072V44.3152C46.7968 44.4336 46.8928 44.5296 47.0112 44.5296H59.1728C59.2912 44.5296 59.3872 44.4336 59.3872 44.3152V44.1072C59.3872 43.9888 59.2912 43.8928 59.1728 43.8928H58.2128L56.8752 38.9008L58.696 33.7632C58.8672 33.2816 58.5088 32.7744 57.9968 32.7744C57.6832 32.7744 57.4032 32.9728 57.2976 33.2688L55.5776 38.1232C55.4128 38.5904 54.9712 38.9024 54.4752 38.9024H48.928H48.5392C48.0752 38.9024 47.6496 39.1616 47.4384 39.5744L45.6 43.152C45.4256 43.4912 45.672 43.8944 46.0528 43.8944V43.8928ZM48.9296 43.8928V39.8784H55.5648L56.6416 43.8928H48.9296Z" fill="white"/>
<path d="M55.2176 36.4687C55.2176 36.0863 54.32 35.7295 52.7808 35.4303C52.9552 34.2687 53.4064 32.6991 54.5728 32.3983C55.8544 32.0671 56.1872 32.7967 56.2672 33.3007C56.3024 33.5183 56.2864 33.7391 56.2272 33.9503C56 34.7727 55.1872 37.6543 54.7968 38.1679C54.3392 38.7679 47.7424 37.8367 47.7424 37.8367L48.6576 37.7455C53.832 37.4351 55.216 37.2335 55.216 36.4687H55.2176Z" fill="white"/>
<path d="M44.0112 31.5198C43.728 31.2494 43.3488 31.1006 42.9584 31.1006L40.672 31.443C40.2256 31.5102 39.7728 31.5102 39.3264 31.443L37.04 31.1006C36.648 31.1006 36.2704 31.2494 35.9872 31.5198C34.5792 32.867 34.3872 33.979 34.4736 34.6734C35.72 34.6126 37.0448 34.5726 38.4224 34.555V31.8014L40 32.979L41.5776 31.8014V34.555C42.9552 34.5726 44.28 34.6126 45.5264 34.6734C45.6128 33.9774 45.4208 32.867 44.0128 31.5198H44.0112Z" fill="#F8FBFE"/>
<path d="M40 34.5454C31.5056 34.5454 24.6208 35.4062 24.6208 36.4686C24.6208 37.531 31.5072 38.3918 40 38.3918C48.4929 38.3918 55.3792 37.531 55.3792 36.4686C55.3792 35.4062 48.4929 34.5454 40 34.5454ZM40 37.843C32 37.843 25.5152 37.219 25.5152 36.4494C25.5152 35.6798 32 35.0558 40 35.0558C48 35.0558 54.4848 35.6798 54.4848 36.4494C54.4848 37.219 48 37.843 40 37.843Z" fill="white"/>
</g>
<defs>
<linearGradient id="paint0_linear_665_1575" x1="13.1633" y1="37.1807" x2="66.4097" y2="37.1807" gradientUnits="userSpaceOnUse">
<stop stop-color="#05937E"/>
<stop offset="1" stop-color="#05AF9A"/>
</linearGradient>
<linearGradient id="paint1_linear_665_1575" x1="40" y1="39.9998" x2="69.92" y2="39.9998" gradientUnits="userSpaceOnUse">
<stop stop-color="#05937E"/>
<stop offset="1" stop-color="#05AF9A"/>
</linearGradient>
<clipPath id="clip0_665_1575">
<rect width="80" height="80" fill="white"/>
</clipPath>
</defs>
</svg>
