<svg width="201" height="30" viewBox="0 0 201 30" fill="none" xmlns="http://www.w3.org/2000/svg">
<path d="M135.049 8.14275C134.57 9.01042 132.177 10.3379 131.65 10.8768C130.545 12.004 132.417 12.2537 133.005 12.7926C134.553 14.2065 135.658 15.9468 136.226 17.9911C136.703 19.6993 134.357 19.9514 133.719 19.5337C133.598 19.4546 133.245 17.6747 132.938 17.1062C131.734 14.8814 129.445 13.4106 126.862 13.9223L127.93 19.3384C127.048 20.5052 125.886 21.1899 125.058 19.6746C123.646 17.0938 123.935 6.44449 124.907 3.50035C125.999 0.182947 126.486 1.89109 128.904 1.82682C129.994 1.79715 131 1.30276 132.367 1.47332C135.934 1.91828 136.604 5.33704 135.047 8.14522L135.049 8.14275ZM126.865 9.77673C127.715 10.6296 133.618 6.56809 133.302 5.07748C133.047 3.88104 128.731 4.36555 127.888 5.23569C127.421 5.7202 126.585 9.49739 126.865 9.77673Z" fill="#07ABC9"/>
<path d="M197.534 4.64977C199.484 5.68058 199.808 9.32677 198.898 11.2005C198.607 11.7988 197.44 12.9556 197.161 13.1855C196.948 13.3611 195.18 14.0507 194.498 14.3696C194.108 14.5501 193.203 14.5946 193.502 15.2348C194.498 17.3632 198.117 13.9074 198.916 14.0112C201.39 14.3276 200.199 17.027 198.812 18.2679C196.323 20.4927 192.874 20.7276 190.457 18.2679C185.644 13.3784 190.266 0.808298 197.534 4.64729V4.64977ZM195.774 8.27123C195.43 7.92762 194.375 7.90043 193.942 8.33303C193.618 8.65686 192.98 10.3897 193.126 10.5282C193.717 11.0918 196.881 9.37621 195.776 8.27123H195.774Z" fill="#07ABC9"/>
<path d="M177.503 5.36416C178.991 5.97968 180.445 12.1794 181.011 13.9197L184.534 7.19096C184.852 6.58285 185.362 6.0934 185.995 5.82395C187.977 4.97853 188.548 6.16508 188.108 8.74584C187.762 10.7778 184.403 18.2655 182.912 19.6671C179.295 23.071 176.24 15.0593 175.563 12.3673C175.1 10.538 173.939 3.88838 177.503 5.36169V5.36416Z" fill="#07ABC9"/>
<path d="M146.188 21.0712C146.035 20.9624 145.083 17.9639 145.026 17.5115C144.369 12.261 145.489 6.12553 146.969 1.13953C151.182 1.57954 159.749 0.635241 157.035 7.59141C156.306 9.45777 153.199 12.4464 151.444 13.3289C150.494 13.806 148.65 13.7022 148.02 14.4586C147.172 15.4746 148.893 18.5942 148.388 20.075C148.176 20.6979 146.591 21.3604 146.188 21.0712ZM148.067 11.2846C153.641 10.1994 158.778 2.33102 148.855 4.53851L148.067 11.2846Z" fill="#07ABC9"/>
<path d="M100.595 3.51756C101.927 4.36792 104.879 8.49614 103.801 9.90023C103.69 10.0461 100.971 11.5466 100.575 11.685C98.6001 12.3697 96.0836 12.0187 94.5485 12.4711C93.0134 12.9235 95.4063 16.5697 96.2146 17.1011C99.1983 19.0639 101.159 13.7219 102.629 18.0603C98.9684 20.1738 97.2776 20.8017 93.6437 18.1789C88.0941 14.1718 91.8961 -2.04194 100.595 3.51509V3.51756ZM99.8484 6.51855C96.8845 3.4607 94.2469 6.70148 93.5449 9.77663C96.2245 10.0609 98.2886 9.59865 100.736 8.64446C101.033 8.23906 100.212 6.89429 99.8484 6.52102V6.51855Z" fill="#07ABC9"/>
<path d="M83.2243 4.81796C83.6272 4.50154 85.9286 3.37679 86.4453 3.43612C92.2742 4.1258 90.0173 18.4633 87.9927 19.1456C84.2378 20.4088 87.1844 14.167 87.3871 12.5083C87.5453 11.2179 87.4588 5.87844 85.4589 6.4297C83.6742 6.91915 81.3381 14.5996 81.081 16.4042C80.6756 19.242 82.3887 20.4286 78.3965 19.9539C78.661 15.4895 79.101 10.6519 78.7994 6.17755C78.7302 5.12696 77.3508 4.41008 79.1628 3.56219C81.8424 2.30642 80.6435 6.39756 81.615 6.37778C82.2923 6.07126 82.8362 5.12201 83.2218 4.81796H83.2243Z" fill="#07ABC9"/>
<path d="M164.988 0.407937C166.669 -0.0914048 166.908 1.5673 167.015 2.78846C167.356 6.63487 167.383 14.4414 166.995 18.2557C166.547 22.6435 163.378 20.5719 162.629 17.7044C161.759 14.3722 161.863 5.29506 163.438 2.2817C163.722 1.73787 164.414 0.580976 164.985 0.410409L164.988 0.407937Z" fill="#07ABC9"/>
<path d="M109.452 7.89053C110.307 8.48133 111.909 4.65964 112.705 4.51873C113.098 4.44952 114.436 5.70776 114.571 6.0044C114.903 6.72622 111.771 9.7989 111.783 10.3477C111.786 10.5182 113.8 12.4736 114.178 12.795C115.219 13.6824 116.819 13.4871 116.193 15.5389C115.276 18.5448 110.98 13.2251 110.391 13.2177C109.234 13.2028 107.954 19.2543 107.504 19.5311C107.264 19.6794 104.99 19.2963 104.904 19.1974C104.735 19.0071 106.023 14.8838 106.236 14.3103C106.681 13.1089 107.984 11.9322 107.964 10.7135C107.954 10.0164 106.191 7.64333 105.645 6.66936C105.341 6.12553 103.697 5.52978 105.828 4.4693C108.243 3.26791 108.705 7.37883 109.452 7.89547V7.89053Z" fill="#07ABC9"/>
<path d="M121.184 3.74745V19.7635C121.184 20.735 118.156 20.112 118.156 19.9513V3.74745L115.382 4.14544C112.839 -0.0223357 119.412 0.447343 122.086 0.77859C126.533 1.32984 124.862 5.05266 121.184 3.74745Z" fill="#07ABC9"/>
<path d="M142.765 1.86377C142.849 1.95029 143.029 3.97238 142.804 4.27149C142.515 4.65465 141.872 4.35554 141.598 4.72633C140.913 5.6558 141.138 15.702 141.825 16.9305C142.189 17.5782 144.238 17.907 143.899 18.6288C143.205 20.1169 139.442 20.1491 138.018 19.976C137.334 19.8945 137.146 19.4248 137.208 18.6931C137.351 16.9899 138.706 17.9391 138.977 17.6919C139.469 17.247 137.796 6.30346 138.977 4.50385C136.335 5.29489 137.257 1.86377 137.46 1.86377C138.238 1.86377 142.577 1.6759 142.76 1.86377H142.765Z" fill="#07ABC9"/>
<path d="M170.055 19.9193C168.908 18.9552 169.057 7.46789 170.063 5.85863C170.671 4.88714 172.24 4.41499 173.019 5.48289C174.203 7.11193 174.161 16.6044 173.212 18.4139C172.755 19.2865 170.868 20.6016 170.055 19.9193Z" fill="#07ABC9"/>
<path d="M160.887 17.739C161.107 18.0925 160.986 19.1801 160.751 19.5757C159.426 21.8128 154.16 18.001 157.732 17.3212C158.321 17.21 160.644 17.3484 160.887 17.739Z" fill="#07ABC9"/>
<path d="M170.08 2.94172C168.723 0.793564 173.207 -0.815701 173.773 1.36459C174.169 2.88486 170.646 3.83658 170.08 2.94172Z" fill="#07ABC9"/>
<path d="M4.65476 7.30737C4.65476 9.68048 8.2688 11.6037 10.6419 11.6037H19.6498V7.30737H4.65228H4.65476Z" fill="#9659A4"/>
<path d="M9.76428 13.9248C9.76428 16.2163 12.7208 18.0728 15.0098 18.0728H19.6522V13.9248H9.76428Z" fill="#9659A4"/>
<path d="M17.7785 22.2678H19.6523V20.4558H15.9641C15.9641 21.457 16.7749 22.2678 17.7761 22.2678H17.7785Z" fill="#9659A4"/>
<path d="M45.0321 0H42.7456C40.6419 0 38.9338 1.70567 38.9338 3.81181V16.1421L27.1918 1.04812C27.1646 1.01104 27.1374 0.973964 27.1078 0.939356L27.0855 0.912164C26.601 0.355967 25.8891 0.00247252 25.0931 0.00247252H0C0 2.77851 4.43474 5.02802 7.97957 5.02802H21.6299V27.1103H23.2367C25.7161 27.1103 27.7282 25.1006 27.7282 22.6187V11.6678L39.2477 26.4775H39.2526C39.5419 26.8606 40.0017 27.1103 40.5208 27.1103H42.0658C43.7047 27.1103 45.0321 25.7828 45.0321 24.1439V5.02802H58.6824C62.2248 5.02802 66.662 2.77851 66.662 0.00247252H45.0321V0Z" fill="#00A9C7"/>
<path d="M47.0097 7.30737V11.6037H56.0176C58.3907 11.6037 62.0048 9.68048 62.0048 7.30737H47.0073H47.0097Z" fill="#9659A4"/>
<path d="M47.0098 18.0728H52.7497C55.0412 18.0728 56.8977 16.2163 56.8977 13.9248H47.0098V18.0728Z" fill="#9659A4"/>
<path d="M47.0097 22.2678H48.8835C49.8847 22.2678 50.6955 21.457 50.6955 20.4558H47.0073V22.2678H47.0097Z" fill="#9659A4"/>
<path d="M99.485 27.8914V29.1571C99.485 29.335 99.5048 29.4636 99.5419 29.5427C99.5789 29.6218 99.6457 29.6762 99.7396 29.7034C99.8336 29.7306 99.9868 29.7503 100.197 29.7602V29.9011C99.9522 29.8863 99.6086 29.8814 99.1637 29.8814C98.7607 29.8814 98.4616 29.8888 98.2639 29.9011V29.7602C98.4319 29.7503 98.5555 29.733 98.6322 29.7034C98.7088 29.6762 98.7632 29.6218 98.7904 29.5427C98.8176 29.4636 98.8324 29.335 98.8324 29.1571V25.6716C98.8324 25.4936 98.8176 25.365 98.7904 25.2859C98.7632 25.2068 98.7088 25.1524 98.6322 25.1253C98.5555 25.0981 98.4319 25.0783 98.2639 25.0684V24.9275C98.4616 24.9423 98.7459 24.9497 99.1216 24.9497L99.8805 24.9423C99.9695 24.9374 100.071 24.9349 100.182 24.9349C100.731 24.9349 101.149 25.061 101.44 25.3106C101.732 25.5603 101.875 25.8965 101.875 26.3192C101.875 26.5763 101.819 26.8235 101.702 27.0608C101.589 27.2981 101.393 27.4959 101.119 27.6541C100.845 27.8123 100.481 27.8939 100.026 27.8939H99.485V27.8914ZM99.6803 25.1178C99.6086 25.15 99.5567 25.2093 99.5295 25.2933C99.5023 25.3774 99.4875 25.5035 99.4875 25.674V27.753H99.9572C100.417 27.753 100.733 27.6294 100.909 27.3846C101.084 27.1399 101.173 26.8087 101.173 26.3983C101.173 25.9435 101.084 25.6098 100.904 25.3947C100.723 25.1796 100.424 25.0709 100.009 25.0709C99.8632 25.0709 99.7545 25.0882 99.6828 25.1203L99.6803 25.1178Z" fill="#9659A4"/>
<path d="M104.587 25.0684C104.419 25.0783 104.296 25.0956 104.219 25.1253C104.142 25.1524 104.088 25.2068 104.061 25.2859C104.034 25.365 104.019 25.4936 104.019 25.6716V29.1571C104.019 29.335 104.034 29.4636 104.061 29.5427C104.088 29.6218 104.142 29.6762 104.219 29.7009C104.296 29.7256 104.419 29.7405 104.587 29.7405H105.099C105.388 29.7405 105.611 29.6984 105.764 29.6169C105.917 29.5353 106.028 29.4018 106.098 29.2189C106.167 29.0359 106.219 28.7714 106.251 28.4254H106.412C106.397 28.5712 106.392 28.7615 106.392 29.0013C106.392 29.2683 106.409 29.5674 106.441 29.9011C106.122 29.8863 105.586 29.8814 104.832 29.8814C103.932 29.8814 103.255 29.8888 102.795 29.9011V29.7602C102.963 29.7503 103.087 29.733 103.163 29.7034C103.24 29.6762 103.294 29.6218 103.322 29.5427C103.349 29.4636 103.364 29.335 103.364 29.1571V25.6716C103.364 25.4936 103.349 25.365 103.322 25.2859C103.294 25.2068 103.24 25.1524 103.163 25.1253C103.087 25.0981 102.963 25.0783 102.795 25.0684V24.9275C102.993 24.9423 103.292 24.9497 103.695 24.9497C104.071 24.9497 104.367 24.9423 104.587 24.9275V25.0684Z" fill="#9659A4"/>
<path d="M111.521 29.7602V29.9011C111.333 29.8862 111.084 29.8813 110.77 29.8813C110.367 29.8813 110.068 29.8887 109.87 29.9011V29.7602C110.048 29.7503 110.176 29.728 110.253 29.6934C110.33 29.6588 110.369 29.5945 110.369 29.5006C110.369 29.4215 110.342 29.3103 110.285 29.1694L109.857 28.0174H108.157L107.868 28.7615C107.774 29.0136 107.727 29.2064 107.727 29.3375C107.727 29.4833 107.776 29.5871 107.877 29.6539C107.979 29.7206 108.132 29.7552 108.337 29.7602V29.9011C108.07 29.8862 107.801 29.8813 107.529 29.8813C107.319 29.8813 107.143 29.8887 107.002 29.9011V29.7602C107.237 29.7033 107.423 29.5006 107.559 29.1496L109.21 24.8928H109.324L111.037 29.3127C111.15 29.6044 111.311 29.7527 111.521 29.7626V29.7602ZM109.801 27.879L109.015 25.7778L108.214 27.879H109.801Z" fill="#9659A4"/>
<path d="M116.468 25.0685C116.304 25.0784 116.181 25.1031 116.102 25.1426C116.023 25.1822 115.968 25.2489 115.941 25.3404C115.914 25.4319 115.899 25.5654 115.899 25.7433V29.9383H115.738L112.787 25.3775V29.0879C112.787 29.2709 112.802 29.4068 112.831 29.4958C112.861 29.5848 112.923 29.6491 113.009 29.6886C113.098 29.7282 113.237 29.7529 113.425 29.7628V29.9037C113.256 29.8889 113.017 29.8839 112.708 29.8839C112.426 29.8839 112.208 29.8913 112.055 29.9037V29.7628C112.218 29.7529 112.342 29.7282 112.421 29.6886C112.5 29.6491 112.554 29.5823 112.582 29.4909C112.609 29.3994 112.624 29.2659 112.624 29.0879V25.6741C112.624 25.4961 112.609 25.3676 112.582 25.2885C112.554 25.2094 112.5 25.155 112.423 25.1278C112.347 25.1006 112.223 25.0808 112.055 25.071V24.9301C112.211 24.9449 112.428 24.9523 112.708 24.9523C112.918 24.9523 113.101 24.9449 113.256 24.9301L115.736 28.7517V25.7458C115.736 25.5629 115.721 25.4269 115.691 25.3379C115.662 25.2489 115.6 25.1847 115.511 25.1451C115.422 25.1056 115.283 25.0808 115.096 25.071V24.9301C115.264 24.9449 115.503 24.9523 115.812 24.9523C116.094 24.9523 116.312 24.9449 116.465 24.9301V25.071L116.468 25.0685Z" fill="#9659A4"/>
<path d="M123.211 24.9275V25.0684C123.117 25.0907 123.026 25.1525 122.937 25.2464C122.848 25.3428 122.751 25.4911 122.648 25.6914L121.545 27.8766V29.1546C121.545 29.3326 121.56 29.4612 121.587 29.5403C121.614 29.6194 121.669 29.6737 121.745 29.7009C121.822 29.7281 121.945 29.7479 122.114 29.7578V29.8987C121.899 29.8839 121.599 29.8789 121.221 29.8789C120.818 29.8789 120.519 29.8863 120.321 29.8987V29.7578C120.489 29.7479 120.613 29.7306 120.69 29.7009C120.766 29.6737 120.821 29.6194 120.848 29.5403C120.875 29.4612 120.89 29.3326 120.89 29.1546V28.1016L119.464 25.4664C119.38 25.3132 119.305 25.2069 119.241 25.1549C119.177 25.1006 119.115 25.0734 119.056 25.0734V24.925C119.239 24.9399 119.444 24.9473 119.674 24.9473C120.129 24.9473 120.455 24.9399 120.658 24.925V25.0734C120.329 25.0734 120.166 25.1624 120.166 25.3403C120.166 25.4096 120.188 25.4936 120.235 25.5851L121.402 27.8272L122.301 26.0424C122.428 25.7952 122.492 25.5925 122.492 25.4392C122.492 25.3082 122.44 25.2143 122.339 25.1574C122.237 25.1006 122.081 25.0709 121.874 25.066V24.925C122.141 24.9399 122.41 24.9473 122.682 24.9473C122.892 24.9473 123.068 24.9399 123.209 24.925L123.211 24.9275Z" fill="#9659A4"/>
<path d="M127.27 25.1302C127.604 25.3305 127.866 25.6222 128.051 26.0053C128.237 26.386 128.328 26.8433 128.328 27.3723C128.328 27.9013 128.234 28.3438 128.044 28.7418C127.854 29.1398 127.589 29.4488 127.25 29.6688C126.912 29.8888 126.526 29.9976 126.093 29.9976C125.661 29.9976 125.258 29.8962 124.924 29.696C124.588 29.4958 124.328 29.2041 124.143 28.8209C123.958 28.4402 123.866 27.9829 123.866 27.4539C123.866 26.9249 123.96 26.4824 124.15 26.0844C124.341 25.6864 124.605 25.3774 124.944 25.1574C125.283 24.9374 125.668 24.8262 126.101 24.8262C126.533 24.8262 126.936 24.9275 127.27 25.1278V25.1302ZM125.28 25.2687C125.053 25.4763 124.877 25.768 124.754 26.1437C124.63 26.5195 124.568 26.9471 124.568 27.4292C124.568 27.9112 124.637 28.3463 124.776 28.7146C124.914 29.0854 125.1 29.3697 125.335 29.5724C125.569 29.7751 125.831 29.874 126.121 29.874C126.41 29.874 126.684 29.7701 126.912 29.56C127.139 29.3524 127.315 29.0607 127.438 28.6849C127.562 28.3092 127.624 27.8815 127.624 27.3995C127.624 26.9175 127.554 26.4849 127.416 26.1141C127.278 25.7433 127.092 25.459 126.857 25.2563C126.622 25.0561 126.36 24.9547 126.071 24.9547C125.782 24.9547 125.508 25.0585 125.28 25.2662V25.2687Z" fill="#9659A4"/>
<path d="M133.68 25.0685C133.517 25.0784 133.393 25.1031 133.314 25.1426C133.235 25.1822 133.181 25.2489 133.153 25.3404C133.126 25.4319 133.111 25.5654 133.111 25.7433V27.8569C133.111 28.1931 133.089 28.4823 133.045 28.7246C133 28.9668 132.926 29.172 132.822 29.3475C132.706 29.5477 132.533 29.7084 132.306 29.8246C132.078 29.9408 131.821 30.0001 131.537 30.0001C131.023 30.0001 130.627 29.874 130.358 29.6219C130.152 29.4291 130.014 29.2115 129.942 28.9693C129.873 28.727 129.836 28.3636 129.836 27.8791V25.6741C129.836 25.4961 129.821 25.3676 129.794 25.2885C129.767 25.2094 129.712 25.155 129.636 25.1278C129.559 25.1006 129.436 25.0808 129.268 25.071V24.9301C129.465 24.9449 129.764 24.9523 130.167 24.9523C130.548 24.9523 130.845 24.9449 131.06 24.9301V25.071C130.892 25.0808 130.768 25.0981 130.691 25.1278C130.615 25.155 130.56 25.2094 130.533 25.2885C130.506 25.3676 130.491 25.4961 130.491 25.6741V28.0003C130.491 28.376 130.516 28.6875 130.568 28.9347C130.62 29.1819 130.726 29.3821 130.887 29.5329C131.047 29.6837 131.287 29.7578 131.599 29.7578C132.095 29.7578 132.444 29.5996 132.647 29.2808C132.847 28.9619 132.948 28.5144 132.948 27.9385V25.7458C132.948 25.4937 132.904 25.3206 132.812 25.2267C132.721 25.1328 132.553 25.0808 132.311 25.0734V24.9325C132.479 24.9474 132.718 24.9548 133.027 24.9548C133.309 24.9548 133.527 24.9474 133.68 24.9325V25.0734V25.0685Z" fill="#9659A4"/>
<path d="M138.928 29.5502C138.819 29.7084 138.713 29.8246 138.604 29.8938C138.495 29.963 138.354 30.0001 138.177 30.0001C137.984 30.0001 137.825 29.9432 137.702 29.832C137.578 29.7208 137.484 29.523 137.425 29.2412L137.272 28.5392C137.215 28.2944 137.163 28.109 137.114 27.978C137.064 27.847 136.99 27.7407 136.891 27.6616C136.792 27.5825 136.654 27.5429 136.476 27.5429H135.808V29.1596C135.808 29.3376 135.823 29.4662 135.85 29.5453C135.878 29.6244 135.932 29.6787 136.009 29.7059C136.085 29.7331 136.209 29.7529 136.377 29.7628V29.9037C136.162 29.8889 135.863 29.8839 135.485 29.8839C135.082 29.8839 134.782 29.8913 134.585 29.9037V29.7628C134.753 29.7529 134.876 29.7356 134.953 29.7059C135.03 29.6787 135.084 29.6244 135.111 29.5453C135.138 29.4662 135.153 29.3376 135.153 29.1596V25.6741C135.153 25.4961 135.138 25.3676 135.111 25.2885C135.084 25.2094 135.03 25.155 134.953 25.1278C134.876 25.1006 134.753 25.0808 134.585 25.071V24.9301C134.782 24.9449 135.067 24.9523 135.442 24.9523L136.201 24.9449C136.29 24.9399 136.392 24.9375 136.503 24.9375C137.047 24.9375 137.465 25.0512 137.756 25.2786C138.048 25.506 138.196 25.8002 138.196 26.1611C138.196 26.344 138.152 26.527 138.065 26.7124C137.979 26.8978 137.833 27.0634 137.63 27.2117C137.428 27.36 137.161 27.4589 136.832 27.5108L136.916 27.5256C137.225 27.5776 137.45 27.6715 137.591 27.8074C137.732 27.9434 137.833 28.1585 137.9 28.4551L138.075 29.172C138.122 29.387 138.172 29.5378 138.223 29.6219C138.275 29.7059 138.345 29.748 138.434 29.748C138.513 29.748 138.579 29.7257 138.634 29.6837C138.688 29.6417 138.75 29.5724 138.819 29.481L138.926 29.5576L138.928 29.5502ZM136.001 25.1179C135.929 25.1501 135.878 25.2094 135.85 25.2934C135.823 25.3775 135.808 25.5036 135.808 25.6741V27.402H136.278C136.743 27.402 137.059 27.2982 137.235 27.093C137.408 26.8879 137.494 26.6011 137.494 26.2353C137.494 25.8521 137.403 25.5604 137.22 25.3651C137.037 25.1674 136.74 25.071 136.327 25.071C136.182 25.071 136.073 25.0883 136.001 25.1204V25.1179Z" fill="#9659A4"/>
<path d="M146.06 25.0685C145.897 25.0784 145.773 25.1031 145.694 25.1426C145.615 25.1822 145.56 25.2489 145.533 25.3404C145.506 25.4319 145.491 25.5654 145.491 25.7433V29.9383H145.33L142.379 25.3775V29.0879C142.379 29.2709 142.394 29.4068 142.423 29.4958C142.453 29.5848 142.515 29.6491 142.601 29.6886C142.69 29.7282 142.829 29.7529 143.017 29.7628V29.9037C142.849 29.8889 142.609 29.8839 142.3 29.8839C142.018 29.8839 141.8 29.8913 141.647 29.9037V29.7628C141.81 29.7529 141.934 29.7282 142.013 29.6886C142.092 29.6491 142.147 29.5823 142.174 29.4909C142.201 29.3994 142.216 29.2659 142.216 29.0879V25.6741C142.216 25.4961 142.201 25.3676 142.174 25.2885C142.147 25.2094 142.092 25.155 142.016 25.1278C141.939 25.1006 141.815 25.0808 141.647 25.071V24.9301C141.803 24.9449 142.02 24.9523 142.3 24.9523C142.51 24.9523 142.693 24.9449 142.849 24.9301L145.328 28.7517V25.7458C145.328 25.5629 145.313 25.4269 145.283 25.3379C145.254 25.2489 145.192 25.1847 145.103 25.1451C145.014 25.1056 144.876 25.0808 144.688 25.071V24.9301C144.856 24.9449 145.096 24.9523 145.405 24.9523C145.686 24.9523 145.904 24.9449 146.057 24.9301V25.071L146.06 25.0685Z" fill="#9659A4"/>
<path d="M150.675 29.9011C150.356 29.8863 149.82 29.8814 149.066 29.8814C148.166 29.8814 147.489 29.8888 147.029 29.9011V29.7602C147.197 29.7503 147.32 29.733 147.397 29.7034C147.474 29.6762 147.528 29.6218 147.555 29.5427C147.582 29.4636 147.597 29.335 147.597 29.1571V25.6716C147.597 25.4936 147.582 25.365 147.555 25.2859C147.528 25.2068 147.474 25.1524 147.397 25.1253C147.32 25.0981 147.197 25.0783 147.029 25.0684V24.9275C147.489 24.9423 148.166 24.9497 149.066 24.9497C149.755 24.9497 150.245 24.9423 150.534 24.9275C150.502 25.2365 150.485 25.5133 150.485 25.7556C150.485 25.9385 150.492 26.0844 150.507 26.1907H150.346C150.314 25.8866 150.272 25.6592 150.22 25.5134C150.168 25.365 150.082 25.2587 149.961 25.1895C149.839 25.1228 149.654 25.0882 149.404 25.0882H148.821C148.653 25.0882 148.529 25.1005 148.453 25.1277C148.376 25.1524 148.322 25.2068 148.294 25.2859C148.267 25.365 148.252 25.4936 148.252 25.6716V27.3303H148.717C148.88 27.3303 149.006 27.2907 149.098 27.2141C149.187 27.1374 149.246 27.046 149.276 26.9397C149.305 26.8334 149.33 26.7024 149.35 26.5417L149.37 26.4008H149.53C149.516 26.5986 149.511 26.8186 149.511 27.0608V27.397C149.511 27.6368 149.525 27.968 149.553 28.3957H149.392C149.387 28.3636 149.372 28.2498 149.35 28.0546C149.325 27.8593 149.261 27.7134 149.157 27.6145C149.051 27.5157 148.905 27.4662 148.717 27.4662H148.252V29.1521C148.252 29.3301 148.267 29.4586 148.294 29.5377C148.322 29.6169 148.376 29.6712 148.453 29.696C148.529 29.7207 148.653 29.7355 148.821 29.7355H149.333C149.622 29.7355 149.844 29.696 149.998 29.6193C150.151 29.5427 150.262 29.4191 150.331 29.2461C150.401 29.073 150.452 28.8233 150.485 28.4896H150.645C150.63 28.6157 150.625 28.7838 150.625 28.9964C150.625 29.2634 150.643 29.5625 150.675 29.8962V29.9011Z" fill="#9659A4"/>
<path d="M155.594 29.6762C155.656 29.7232 155.737 29.7479 155.841 29.7528V29.9012C155.522 29.8814 155.322 29.874 155.238 29.874C155.085 29.874 154.754 29.8839 154.247 29.9012V29.7528C154.43 29.7528 154.558 29.7454 154.633 29.7281C154.707 29.7108 154.746 29.6836 154.746 29.6391C154.746 29.6021 154.729 29.56 154.697 29.5131L153.495 27.6714L152.737 28.8036C152.559 29.0706 152.47 29.2757 152.47 29.4216C152.47 29.5427 152.524 29.6292 152.63 29.6787C152.739 29.7281 152.892 29.7553 153.095 29.7603V29.9012C152.828 29.8863 152.512 29.8814 152.146 29.8814C151.889 29.8814 151.688 29.8888 151.547 29.9012V29.7603C151.688 29.7405 151.822 29.6787 151.95 29.5699C152.079 29.4611 152.21 29.3104 152.341 29.1126L153.401 27.533L152.025 25.4244C151.936 25.2884 151.861 25.197 151.8 25.15C151.738 25.103 151.656 25.0783 151.555 25.0734V24.925C151.874 24.9448 152.074 24.9522 152.158 24.9522C152.472 24.9522 152.801 24.9424 153.149 24.925V25.0734C152.981 25.0734 152.86 25.0857 152.788 25.1129C152.717 25.1401 152.68 25.1772 152.68 25.2291C152.68 25.2563 152.702 25.3082 152.744 25.3824L153.839 27.0534L154.529 26.0201C154.729 25.726 154.83 25.501 154.83 25.3453C154.83 25.2464 154.786 25.1772 154.697 25.1352C154.608 25.0931 154.472 25.0684 154.289 25.066V24.925C154.556 24.9399 154.825 24.9473 155.097 24.9473C155.354 24.9473 155.555 24.9399 155.695 24.925V25.066C155.555 25.0857 155.421 25.1475 155.293 25.2563C155.164 25.3651 155.033 25.5159 154.902 25.7136L153.918 27.182L155.372 29.4018C155.461 29.5378 155.535 29.6292 155.597 29.6762H155.594Z" fill="#9659A4"/>
<path d="M160.419 25.8273C160.419 26.0621 160.427 26.2525 160.439 26.4033H160.278C160.241 26.0424 160.194 25.7754 160.138 25.5999C160.081 25.4244 159.982 25.2958 159.843 25.2142C159.702 25.1327 159.487 25.0906 159.198 25.0906H158.817V29.0878C158.817 29.2856 158.837 29.4265 158.874 29.5155C158.911 29.6045 158.978 29.6663 159.072 29.6984C159.166 29.7306 159.317 29.7528 159.529 29.7627V29.9036C159.285 29.8888 158.941 29.8838 158.496 29.8838C158.029 29.8838 157.68 29.8912 157.455 29.9036V29.7627C157.666 29.7528 157.819 29.733 157.913 29.6984C158.007 29.6663 158.071 29.6045 158.111 29.5155C158.148 29.4265 158.167 29.2831 158.167 29.0878V25.0906H157.789C157.5 25.0906 157.282 25.1327 157.141 25.2142C157.001 25.2958 156.902 25.4244 156.847 25.5999C156.793 25.7754 156.744 26.0424 156.706 26.4033H156.546C156.561 26.2525 156.568 26.0621 156.568 25.8273C156.568 25.5603 156.551 25.2612 156.519 24.9275C156.907 24.9423 157.567 24.9497 158.499 24.9497C159.431 24.9497 160.083 24.9423 160.474 24.9275C160.442 25.2612 160.424 25.5603 160.424 25.8273H160.419Z" fill="#9659A4"/>
<path d="M167.039 25.8273C167.039 26.0621 167.047 26.2525 167.059 26.4033H166.898C166.861 26.0424 166.814 25.7754 166.758 25.5999C166.701 25.4244 166.602 25.2958 166.463 25.2142C166.322 25.1327 166.107 25.0906 165.818 25.0906H165.437V29.0878C165.437 29.2856 165.457 29.4265 165.494 29.5155C165.531 29.6045 165.598 29.6663 165.692 29.6984C165.786 29.7306 165.937 29.7528 166.149 29.7627V29.9036C165.905 29.8888 165.561 29.8838 165.116 29.8838C164.649 29.8838 164.3 29.8912 164.075 29.9036V29.7627C164.286 29.7528 164.439 29.733 164.533 29.6984C164.627 29.6663 164.691 29.6045 164.731 29.5155C164.768 29.4265 164.787 29.2831 164.787 29.0878V25.0906H164.409C164.12 25.0906 163.902 25.1327 163.761 25.2142C163.621 25.2958 163.522 25.4244 163.467 25.5999C163.413 25.7754 163.364 26.0424 163.326 26.4033H163.166C163.181 26.2525 163.188 26.0621 163.188 25.8273C163.188 25.5603 163.171 25.2612 163.139 24.9275C163.527 24.9423 164.187 24.9497 165.119 24.9497C166.051 24.9497 166.703 24.9423 167.094 24.9275C167.062 25.2612 167.044 25.5603 167.044 25.8273H167.039Z" fill="#9659A4"/>
<path d="M172.349 29.5502C172.24 29.7084 172.134 29.8246 172.025 29.8938C171.917 29.963 171.776 30.0001 171.598 30.0001C171.405 30.0001 171.247 29.9432 171.123 29.832C170.999 29.7208 170.906 29.523 170.846 29.2412L170.693 28.5392C170.636 28.2944 170.584 28.109 170.535 27.978C170.485 27.847 170.411 27.7407 170.312 27.6616C170.213 27.5825 170.075 27.5429 169.897 27.5429H169.23V29.1596C169.23 29.3376 169.244 29.4662 169.272 29.5453C169.299 29.6244 169.353 29.6787 169.43 29.7059C169.506 29.7331 169.63 29.7529 169.798 29.7628V29.9037C169.583 29.8889 169.284 29.8839 168.906 29.8839C168.503 29.8839 168.204 29.8913 168.006 29.9037V29.7628C168.174 29.7529 168.298 29.7356 168.374 29.7059C168.451 29.6787 168.505 29.6244 168.532 29.5453C168.56 29.4662 168.574 29.3376 168.574 29.1596V25.6741C168.574 25.4961 168.56 25.3676 168.532 25.2885C168.505 25.2094 168.451 25.155 168.374 25.1278C168.298 25.1006 168.174 25.0808 168.006 25.071V24.9301C168.204 24.9449 168.488 24.9523 168.864 24.9523L169.623 24.9449C169.712 24.9399 169.813 24.9375 169.924 24.9375C170.468 24.9375 170.886 25.0512 171.177 25.2786C171.469 25.506 171.617 25.8002 171.617 26.1611C171.617 26.344 171.573 26.527 171.486 26.7124C171.4 26.8978 171.254 27.0634 171.051 27.2117C170.849 27.36 170.582 27.4589 170.253 27.5108L170.337 27.5256C170.646 27.5776 170.871 27.6715 171.012 27.8074C171.153 27.9434 171.254 28.1585 171.321 28.4551L171.496 29.172C171.543 29.387 171.593 29.5378 171.645 29.6219C171.697 29.7059 171.766 29.748 171.855 29.748C171.934 29.748 172.001 29.7257 172.055 29.6837C172.109 29.6417 172.171 29.5724 172.24 29.481L172.347 29.5576L172.349 29.5502ZM169.425 25.1179C169.353 25.1501 169.301 25.2094 169.274 25.2934C169.247 25.3775 169.232 25.5036 169.232 25.6741V27.402H169.702C170.166 27.402 170.483 27.2982 170.658 27.093C170.831 26.8879 170.918 26.6011 170.918 26.2353C170.918 25.8521 170.826 25.5604 170.644 25.3651C170.461 25.1674 170.164 25.071 169.751 25.071C169.605 25.071 169.497 25.0883 169.425 25.1204V25.1179Z" fill="#9659A4"/>
<path d="M174.774 25.0684C174.606 25.0783 174.483 25.0956 174.406 25.1253C174.329 25.1524 174.275 25.2068 174.248 25.2859C174.221 25.365 174.206 25.4936 174.206 25.6716V29.1571C174.206 29.335 174.221 29.4636 174.248 29.5427C174.275 29.6218 174.329 29.6762 174.406 29.7034C174.483 29.7306 174.606 29.7503 174.774 29.7602V29.9011C174.559 29.8863 174.26 29.8814 173.882 29.8814C173.479 29.8814 173.18 29.8888 172.982 29.9011V29.7602C173.15 29.7503 173.274 29.733 173.35 29.7034C173.427 29.6762 173.481 29.6218 173.509 29.5427C173.536 29.4636 173.551 29.335 173.551 29.1571V25.6716C173.551 25.4936 173.536 25.365 173.509 25.2859C173.481 25.2068 173.427 25.1524 173.35 25.1253C173.274 25.0981 173.15 25.0783 172.982 25.0684V24.9275C173.18 24.9423 173.479 24.9497 173.882 24.9497C174.258 24.9497 174.554 24.9423 174.774 24.9275V25.0684Z" fill="#9659A4"/>
<path d="M177.009 27.8914V29.1571C177.009 29.335 177.029 29.4636 177.066 29.5427C177.103 29.6218 177.17 29.6762 177.264 29.7034C177.357 29.7306 177.511 29.7503 177.721 29.7602V29.9011C177.476 29.8863 177.133 29.8814 176.688 29.8814C176.285 29.8814 175.986 29.8888 175.788 29.9011V29.7602C175.956 29.7503 176.079 29.733 176.156 29.7034C176.233 29.6762 176.287 29.6218 176.314 29.5427C176.342 29.4636 176.356 29.335 176.356 29.1571V25.6716C176.356 25.4936 176.342 25.365 176.314 25.2859C176.287 25.2068 176.233 25.1524 176.156 25.1253C176.079 25.0981 175.956 25.0783 175.788 25.0684V24.9275C175.986 24.9423 176.27 24.9497 176.646 24.9497L177.404 24.9423C177.493 24.9374 177.595 24.9349 177.706 24.9349C178.255 24.9349 178.673 25.061 178.964 25.3106C179.256 25.5603 179.399 25.8965 179.399 26.3192C179.399 26.5763 179.343 26.8235 179.226 27.0608C179.113 27.2981 178.917 27.4959 178.643 27.6541C178.369 27.8123 178.005 27.8939 177.55 27.8939H177.009V27.8914ZM177.202 25.1178C177.13 25.15 177.078 25.2093 177.051 25.2933C177.024 25.3774 177.009 25.5035 177.009 25.674V27.753H177.479C177.938 27.753 178.255 27.6294 178.43 27.3846C178.606 27.1399 178.695 26.8087 178.695 26.3983C178.695 25.9435 178.606 25.6098 178.425 25.3947C178.245 25.1796 177.946 25.0709 177.531 25.0709C177.385 25.0709 177.276 25.0882 177.204 25.1203L177.202 25.1178Z" fill="#9659A4"/>
</svg>
