<svg width="48" height="48" viewBox="0 0 48 48" fill="none" xmlns="http://www.w3.org/2000/svg">
<path d="M10.8385 21.2424L15.2385 23.1039C15.7822 22.0166 16.3617 20.9659 16.977 19.9519C17.5923 18.9379 18.2705 17.9398 19.0115 16.9574L16.077 16.3884C15.9743 16.3628 15.875 16.3659 15.779 16.3979C15.6827 16.4299 15.596 16.4844 15.519 16.5614L10.8385 21.2424ZM17.6305 24.9884L23.3115 30.6384C24.8012 30.0154 26.346 29.1539 27.946 28.0539C29.546 26.9539 31.0653 25.6846 32.504 24.2459C34.7473 22.0026 36.4825 19.5584 37.7095 16.9134C38.9365 14.2688 39.5435 11.5476 39.5305 8.74994C36.7332 8.73727 34.0102 9.34427 31.3615 10.5709C28.7128 11.7979 26.2667 13.5333 24.023 15.7769C22.5847 17.2153 21.3155 18.7378 20.2155 20.3444C19.1155 21.9508 18.2538 23.4988 17.6305 24.9884ZM27.2615 20.9884C26.5845 20.3114 26.246 19.4884 26.246 18.5194C26.246 17.5501 26.5845 16.7269 27.2615 16.0499C27.9385 15.3729 28.7698 15.0344 29.7555 15.0344C30.7415 15.0344 31.573 15.3729 32.25 16.0499C32.927 16.7269 33.2655 17.5501 33.2655 18.5194C33.2655 19.4884 32.927 20.3114 32.25 20.9884C31.573 21.6654 30.7415 22.0039 29.7555 22.0039C28.7698 22.0039 27.9385 21.6654 27.2615 20.9884ZM27.0385 37.4614L31.719 32.7809C31.796 32.7039 31.8505 32.6173 31.8825 32.5209C31.9145 32.4249 31.9178 32.3256 31.8925 32.2229L31.323 29.2884C30.341 30.0294 29.343 30.7024 28.329 31.3074C27.3147 31.9128 26.264 32.4873 25.177 33.0309L27.0385 37.4614ZM42.2655 6.00394C42.6935 9.85761 42.2377 13.5101 40.898 16.9614C39.5583 20.4128 37.3538 23.6731 34.2845 26.7424L34.1115 26.9154L33.9385 27.0884L34.842 31.6154C34.9627 32.2178 34.9358 32.8036 34.7615 33.3729C34.5872 33.9423 34.2858 34.4409 33.8575 34.8689L26.0155 42.6919L22.2575 33.8614L14.4195 26.0229L5.5885 22.2459L13.381 14.4229C13.809 13.9949 14.3128 13.6904 14.8925 13.5094C15.4718 13.3288 16.0628 13.2988 16.6655 13.4194L21.231 14.3424C21.295 14.2784 21.3493 14.2208 21.394 14.1694C21.439 14.1181 21.4935 14.0603 21.5575 13.9959C24.6268 10.9269 27.882 8.7206 31.323 7.37694C34.764 6.03327 38.4115 5.57561 42.2655 6.00394ZM9.0425 32.1424C10.0168 31.1681 11.2047 30.6789 12.606 30.6749C14.007 30.6713 15.1947 31.1566 16.169 32.1309C17.1433 33.1053 17.6255 34.2929 17.6155 35.6939C17.6052 37.0953 17.1128 38.2831 16.1385 39.2574C15.3822 40.0138 14.1412 40.6631 12.4155 41.2054C10.6898 41.7478 8.47567 42.1818 5.773 42.5074C6.09867 39.8051 6.53583 37.5911 7.0845 35.8654C7.6335 34.1398 8.28617 32.8988 9.0425 32.1424ZM11.181 34.2689C10.822 34.6279 10.4758 35.2459 10.1425 36.1229C9.80917 36.9999 9.58217 37.8948 9.4615 38.8074C10.3745 38.6871 11.2693 38.4621 12.146 38.1324C13.023 37.8031 13.641 37.4589 14 37.0999C14.4 36.6999 14.6103 36.2198 14.631 35.6594C14.6513 35.0991 14.4615 34.6189 14.0615 34.2189C13.6615 33.8189 13.1813 33.6273 12.621 33.6439C12.061 33.6606 11.581 33.8689 11.181 34.2689Z" fill="white"/>
</svg>
