<svg width="48" height="48" viewBox="0 0 48 48" fill="none" xmlns="http://www.w3.org/2000/svg">
<path d="M24.0035 43C21.3755 43 18.9053 42.5013 16.593 41.504C14.2807 40.5067 12.2693 39.1532 10.559 37.4435C8.84867 35.7338 7.4945 33.7233 6.4965 31.412C5.49883 29.1007 5 26.6312 5 24.0035C5 21.3755 5.49867 18.9053 6.496 16.593C7.49333 14.2807 8.84683 12.2693 10.5565 10.559C12.2662 8.84867 14.2767 7.4945 16.588 6.4965C18.8993 5.49883 21.3688 5 23.9965 5C26.6245 5 29.0947 5.49867 31.407 6.496C33.7193 7.49333 35.7307 8.84683 37.441 10.5565C39.1513 12.2662 40.5055 14.2767 41.5035 16.588C42.5012 18.8993 43 21.3688 43 23.9965C43 26.6245 42.5013 29.0947 41.504 31.407C40.5067 33.7193 39.1532 35.7307 37.4435 37.441C35.7338 39.1513 33.7233 40.5055 31.412 41.5035C29.1007 42.5012 26.6312 43 24.0035 43ZM24 40C28.4667 40 32.25 38.45 35.35 35.35C38.45 32.25 40 28.4667 40 24C40 19.5333 38.45 15.75 35.35 12.65C32.25 9.55 28.4667 8 24 8C19.5333 8 15.75 9.55 12.65 12.65C9.55 15.75 8 19.5333 8 24C8 28.4667 9.55 32.25 12.65 35.35C15.75 38.45 19.5333 40 24 40ZM24.0045 35C20.9502 35 18.3525 33.931 16.2115 31.793C14.0705 29.655 13 27.0588 13 24.0045C13 20.9502 14.069 18.3525 16.207 16.2115C18.345 14.0705 20.9412 13 23.9955 13C27.0498 13 29.6475 14.069 31.7885 16.207C33.9295 18.345 35 20.9412 35 23.9955C35 27.0498 33.931 29.6475 31.793 31.7885C29.655 33.9295 27.0588 35 24.0045 35ZM24 32C26.2 32 28.0833 31.2167 29.65 29.65C31.2167 28.0833 32 26.2 32 24C32 21.8 31.2167 19.9167 29.65 18.35C28.0833 16.7833 26.2 16 24 16C21.8 16 19.9167 16.7833 18.35 18.35C16.7833 19.9167 16 21.8 16 24C16 26.2 16.7833 28.0833 18.35 29.65C19.9167 31.2167 21.8 32 24 32ZM24 27C23.182 27 22.4775 26.7045 21.8865 26.1135C21.2955 25.5225 21 24.818 21 24C21 23.182 21.2955 22.4775 21.8865 21.8865C22.4775 21.2955 23.182 21 24 21C24.818 21 25.5225 21.2955 26.1135 21.8865C26.7045 22.4775 27 23.182 27 24C27 24.818 26.7045 25.5225 26.1135 26.1135C25.5225 26.7045 24.818 27 24 27Z" fill="#19B3EC"/>
</svg>
