<svg width="48" height="48" viewBox="0 0 48 48" fill="none" xmlns="http://www.w3.org/2000/svg">
<path d="M24.0045 31.154C26.2709 31.154 28.1957 30.3608 29.779 28.7745C31.3624 27.1882 32.154 25.2618 32.154 22.9955C32.154 20.7292 31.3609 18.8043 29.7745 17.221C28.1882 15.6377 26.2619 14.846 23.9955 14.846C21.7292 14.846 19.8044 15.6392 18.221 17.2255C16.6377 18.8118 15.846 20.7382 15.846 23.0045C15.846 25.2708 16.6392 27.1957 18.2255 28.779C19.8119 30.3623 21.7382 31.154 24.0045 31.154ZM24 28.4C22.5 28.4 21.225 27.875 20.175 26.825C19.125 25.775 18.6 24.5 18.6 23C18.6 21.5 19.125 20.225 20.175 19.175C21.225 18.125 22.5 17.6 24 17.6C25.5 17.6 26.775 18.125 27.825 19.175C28.875 20.225 29.4 21.5 29.4 23C29.4 24.5 28.875 25.775 27.825 26.825C26.775 27.875 25.5 28.4 24 28.4ZM24.0025 37C19.4035 37 15.213 35.7313 11.431 33.194C7.64903 30.657 4.86436 27.259 3.07703 23C4.86436 18.741 7.64803 15.343 11.428 12.806C15.2084 10.2687 19.3982 9 23.9975 9C28.5965 9 32.787 10.2687 36.569 12.806C40.351 15.343 43.1357 18.741 44.923 23C43.1357 27.259 40.352 30.657 36.572 33.194C32.7917 35.7313 28.6019 37 24.0025 37ZM24 34C27.7667 34 31.225 33.0083 34.375 31.025C37.525 29.0417 39.9334 26.3667 41.6 23C39.9334 19.6333 37.525 16.9583 34.375 14.975C31.225 12.9917 27.7667 12 24 12C20.2334 12 16.775 12.9917 13.625 14.975C10.475 16.9583 8.06669 19.6333 6.40003 23C8.06669 26.3667 10.475 29.0417 13.625 31.025C16.775 33.0083 20.2334 34 24 34Z" fill="white"/>
</svg>
